<svg xmlns="http://www.w3.org/2000/svg" width="50" height="50" viewBox="0 0 50 50">
  <!-- Mixed-height scattered blades covering the whole tile, inspired by grass-9 -->
  <!-- Short blades near base -->
  <path d="M2 50 Q2 46 1 43" stroke="#8bc34a" stroke-width="2" fill="none" stroke-linecap="round"/>
  <path d="M8 50 Q9 44 7 40" stroke="#7ed957" stroke-width="1.5" fill="none" stroke-linecap="round"/>
  <path d="M26 50 Q27 46 25 42" stroke="#7ed957" stroke-width="2" fill="none" stroke-linecap="round"/>
  <path d="M44 50 Q45 46 43 42" stroke="#a5d63f" stroke-width="1.5" fill="none" stroke-linecap="round"/>
  <!-- Tall blades -->
  <path d="M14 50 Q14 40 13 30" stroke="#a5d63f" stroke-width="2" fill="none" stroke-linecap="round"/>
  <path d="M32 50 Q32 38 31 26" stroke="#8bc34a" stroke-width="1.5" fill="none" stroke-linecap="round"/>
  <!-- Medium blades -->
  <path d="M20 50 Q20 43 19 36" stroke="#8bc34a" stroke-width="1.5" fill="none" stroke-linecap="round"/>
  <path d="M38 50 Q38 43 37 36" stroke="#7ed957" stroke-width="2" fill="none" stroke-linecap="round"/>
  <path d="M48 50 Q49 45 47 40" stroke="#a5d63f" stroke-width="1.5" fill="none" stroke-linecap="round"/>
  <!-- Middle-tier blades from various heights -->
  <path d="M5 40 Q5 32 4 24" stroke="#a5d63f" stroke-width="2" fill="none" stroke-linecap="round"/>
  <path d="M11 36 Q12 28 10 20" stroke="#8bc34a" stroke-width="1.5" fill="none" stroke-linecap="round"/>
  <path d="M17 42 Q17 34 16 26" stroke="#7ed957" stroke-width="2" fill="none" stroke-linecap="round"/>
  <path d="M23 38 Q24 28 22 18" stroke="#a5d63f" stroke-width="1.5" fill="none" stroke-linecap="round"/>
  <path d="M29 44 Q29 36 28 28" stroke="#8bc34a" stroke-width="2" fill="none" stroke-linecap="round"/>
  <path d="M35 40 Q36 30 34 20" stroke="#7ed957" stroke-width="1.5" fill="none" stroke-linecap="round"/>
  <path d="M41 36 Q41 26 40 16" stroke="#a5d63f" stroke-width="2" fill="none" stroke-linecap="round"/>
  <path d="M47 44 Q48 34 46 24" stroke="#8bc34a" stroke-width="1.5" fill="none" stroke-linecap="round"/>
  <!-- Upper area blades -->
  <path d="M3 24 Q3 16 2 8" stroke="#7ed957" stroke-width="2" fill="none" stroke-linecap="round"/>
  <path d="M9 20 Q10 12 8 4" stroke="#a5d63f" stroke-width="1.5" fill="none" stroke-linecap="round"/>
  <path d="M15 28 Q15 18 14 8" stroke="#8bc34a" stroke-width="2" fill="none" stroke-linecap="round"/>
  <path d="M21 24 Q22 14 20 4" stroke="#7ed957" stroke-width="1.5" fill="none" stroke-linecap="round"/>
  <path d="M27 20 Q27 11 26 2" stroke="#a5d63f" stroke-width="2" fill="none" stroke-linecap="round"/>
  <path d="M33 26 Q34 16 32 6" stroke="#8bc34a" stroke-width="1.5" fill="none" stroke-linecap="round"/>
  <path d="M39 22 Q39 12 38 2" stroke="#7ed957" stroke-width="2" fill="none" stroke-linecap="round"/>
  <path d="M45 26 Q46 16 44 6" stroke="#a5d63f" stroke-width="1.5" fill="none" stroke-linecap="round"/>
  <!-- Scattered colorful dots throughout -->
  <circle cx="6" cy="46" r="2" fill="#a5d63f"/>
  <circle cx="18" cy="46" r="1.5" fill="#7ed957"/>
  <circle cx="30" cy="47" r="2" fill="#8bc34a"/>
  <circle cx="43" cy="46" r="1.5" fill="#a5d63f"/>
  <circle cx="12" cy="34" r="2" fill="#7ed957"/>
  <circle cx="25" cy="32" r="1.5" fill="#8bc34a"/>
  <circle cx="38" cy="34" r="2" fill="#a5d63f"/>
  <circle cx="48" cy="33" r="1.5" fill="#7ed957"/>
  <circle cx="7" cy="18" r="2" fill="#8bc34a"/>
  <circle cx="18" cy="16" r="1.5" fill="#a5d63f"/>
  <circle cx="30" cy="18" r="2" fill="#7ed957"/>
  <circle cx="42" cy="16" r="1.5" fill="#8bc34a"/>
  <circle cx="13" cy="4" r="2" fill="#a5d63f"/>
  <circle cx="25" cy="3" r="1.5" fill="#7ed957"/>
  <circle cx="37" cy="4" r="2" fill="#8bc34a"/>
  <circle cx="49" cy="3" r="1.5" fill="#a5d63f"/>
</svg>
