<svg xmlns="http://www.w3.org/2000/svg" width="50" height="50" viewBox="0 0 50 50">
  <!-- Wispy curved blades -->
  <path d="M6 48 Q10 40 6 30" stroke="#7ed957" stroke-width="2" fill="none" stroke-linecap="round"/>
  <path d="M9 48 Q13 39 9 28" stroke="#a5d63f" stroke-width="1.5" fill="none" stroke-linecap="round"/>
  <path d="M18 48 Q22 41 18 31" stroke="#8bc34a" stroke-width="2" fill="none" stroke-linecap="round"/>
  <path d="M21 48 Q25 38 21 27" stroke="#7ed957" stroke-width="1.5" fill="none" stroke-linecap="round"/>
  <path d="M30 48 Q34 40 30 30" stroke="#a5d63f" stroke-width="2" fill="none" stroke-linecap="round"/>
  <path d="M33 48 Q37 39 33 28" stroke="#8bc34a" stroke-width="1.5" fill="none" stroke-linecap="round"/>
  <path d="M42 48 Q46 41 42 31" stroke="#7ed957" stroke-width="2" fill="none" stroke-linecap="round"/>
  <path d="M45 48 Q49 38 45 28" stroke="#a5d63f" stroke-width="1.5" fill="none" stroke-linecap="round"/>
  <path d="M13 30 Q17 22 13 13" stroke="#8bc34a" stroke-width="1.5" fill="none" stroke-linecap="round"/>
  <path d="M26 30 Q30 21 26 12" stroke="#7ed957" stroke-width="1.5" fill="none" stroke-linecap="round"/>
  <path d="M39 30 Q43 22 39 13" stroke="#a5d63f" stroke-width="1.5" fill="none" stroke-linecap="round"/>
</svg>
