<svg xmlns="http://www.w3.org/2000/svg" width="50" height="50" viewBox="0 0 50 50">
  <!-- Dense short ripples -->
  <path d="M0 8 Q4 5 8 8 Q12 11 16 8 Q20 5 24 8 Q28 11 32 8 Q36 5 40 8 Q44 11 50 8" stroke="#4fc3f7" stroke-width="1.5" fill="none" stroke-linecap="round"/>
  <path d="M0 16 Q4 13 8 16 Q12 19 16 16 Q20 13 24 16 Q28 19 32 16 Q36 13 40 16 Q44 19 50 16" stroke="#81d4fa" stroke-width="1.5" fill="none" stroke-linecap="round"/>
  <path d="M0 24 Q4 21 8 24 Q12 27 16 24 Q20 21 24 24 Q28 27 32 24 Q36 21 40 24 Q44 27 50 24" stroke="#4fc3f7" stroke-width="1.5" fill="none" stroke-linecap="round"/>
  <path d="M0 32 Q4 29 8 32 Q12 35 16 32 Q20 29 24 32 Q28 35 32 32 Q36 29 40 32 Q44 35 50 32" stroke="#b3e5fc" stroke-width="1.5" fill="none" stroke-linecap="round"/>
  <path d="M0 40 Q4 37 8 40 Q12 43 16 40 Q20 37 24 40 Q28 43 32 40 Q36 37 40 40 Q44 43 50 40" stroke="#81d4fa" stroke-width="1.5" fill="none" stroke-linecap="round"/>
  <path d="M0 48 Q5 45 10 48 Q15 51 20 48 Q25 45 30 48 Q35 51 40 48 Q45 45 50 48" stroke="#4fc3f7" stroke-width="1.5" fill="none" stroke-linecap="round"/>
</svg>
